<mxfile host="app.diagrams.net" modified="2023-05-15T02:15:04.724Z" agent="Mozilla/5.0 (Macintosh; Intel Mac OS X 10_15_7) AppleWebKit/537.36 (KHTML, like Gecko) Chrome/112.0.0.0 Safari/537.36" etag="BRTk2twSu6wJ5x_8frNs" version="21.3.0" type="google">
  <diagram id="C5RBs43oDa-KdzZeNtuy" name="Page-1">
    <mxGraphModel grid="1" page="1" gridSize="10" guides="1" tooltips="1" connect="1" arrows="1" fold="1" pageScale="1" pageWidth="827" pageHeight="1169" math="0" shadow="0">
      <root>
        <mxCell id="WIyWlLk6GJQsqaUBKTNV-0" />
        <mxCell id="WIyWlLk6GJQsqaUBKTNV-1" parent="WIyWlLk6GJQsqaUBKTNV-0" />
        <mxCell id="zkfFHV4jXpPFQw0GAbJ--0" value="Driver" style="swimlane;fontStyle=2;align=center;verticalAlign=top;childLayout=stackLayout;horizontal=1;startSize=26;horizontalStack=0;resizeParent=1;resizeLast=0;collapsible=1;marginBottom=0;rounded=0;shadow=0;strokeWidth=1;" vertex="1" parent="WIyWlLk6GJQsqaUBKTNV-1">
          <mxGeometry x="350" y="20" width="190" height="90" as="geometry">
            <mxRectangle x="230" y="140" width="160" height="26" as="alternateBounds" />
          </mxGeometry>
        </mxCell>
        <mxCell id="zkfFHV4jXpPFQw0GAbJ--4" value="" style="line;html=1;strokeWidth=1;align=left;verticalAlign=middle;spacingTop=-1;spacingLeft=3;spacingRight=3;rotatable=0;labelPosition=right;points=[];portConstraint=eastwest;" vertex="1" parent="zkfFHV4jXpPFQw0GAbJ--0">
          <mxGeometry y="26" width="190" height="8" as="geometry" />
        </mxCell>
        <mxCell id="zkfFHV4jXpPFQw0GAbJ--5" value="+ main(): void, starts the program&#xa;+ helpMessage(): String, returns&#xa;the help messageÂ " style="text;align=left;verticalAlign=top;spacingLeft=4;spacingRight=4;overflow=hidden;rotatable=0;points=[[0,0.5],[1,0.5]];portConstraint=eastwest;" vertex="1" parent="zkfFHV4jXpPFQw0GAbJ--0">
          <mxGeometry y="34" width="190" height="56" as="geometry" />
        </mxCell>
        <mxCell id="4r7Y8FT_wDayemld7kVs-2" value="MarkDownReader" style="swimlane;fontStyle=2;align=center;verticalAlign=top;childLayout=stackLayout;horizontal=1;startSize=40;horizontalStack=0;resizeParent=1;resizeLast=0;collapsible=1;marginBottom=0;rounded=0;shadow=0;strokeWidth=1;" vertex="1" parent="WIyWlLk6GJQsqaUBKTNV-1">
          <mxGeometry x="10" y="243" width="210" height="154" as="geometry">
            <mxRectangle x="230" y="140" width="160" height="26" as="alternateBounds" />
          </mxGeometry>
        </mxCell>
        <mxCell id="4r7Y8FT_wDayemld7kVs-49" value="- sortBy: sortByX" style="text;html=1;align=left;verticalAlign=middle;resizable=0;points=[];autosize=1;strokeColor=none;fillColor=none;" vertex="1" parent="4r7Y8FT_wDayemld7kVs-2">
          <mxGeometry y="40" width="210" height="30" as="geometry" />
        </mxCell>
        <mxCell id="4r7Y8FT_wDayemld7kVs-3" value="" style="line;html=1;strokeWidth=1;align=left;verticalAlign=middle;spacingTop=-1;spacingLeft=3;spacingRight=3;rotatable=0;labelPosition=right;points=[];portConstraint=eastwest;" vertex="1" parent="4r7Y8FT_wDayemld7kVs-2">
          <mxGeometry y="70" width="210" height="24" as="geometry" />
        </mxCell>
        <mxCell id="4r7Y8FT_wDayemld7kVs-48" value="+ toSingleMarkDown(): MarkDown,&lt;br&gt;Converts the list of MarkDown files &lt;br&gt;into a single MarkDown file." style="text;html=1;align=left;verticalAlign=middle;resizable=0;points=[];autosize=1;strokeColor=none;fillColor=none;" vertex="1" parent="4r7Y8FT_wDayemld7kVs-2">
          <mxGeometry y="94" width="210" height="60" as="geometry" />
        </mxCell>
        <mxCell id="4r7Y8FT_wDayemld7kVs-5" value="&lt;abstract&gt;&#xa;FileSystemReader&lt;T&gt;&#xa;implements FileVistor&lt;Path&gt;" style="swimlane;fontStyle=2;align=center;verticalAlign=top;childLayout=stackLayout;horizontal=1;startSize=50;horizontalStack=0;resizeParent=1;resizeLast=0;collapsible=1;marginBottom=0;rounded=0;shadow=0;strokeWidth=1;" vertex="1" parent="WIyWlLk6GJQsqaUBKTNV-1">
          <mxGeometry x="10" y="30" width="240" height="160" as="geometry">
            <mxRectangle x="20" y="260" width="160" height="26" as="alternateBounds" />
          </mxGeometry>
        </mxCell>
        <mxCell id="4r7Y8FT_wDayemld7kVs-46" value="- files: ArrayList&amp;lt;T&amp;gt;" style="text;html=1;align=left;verticalAlign=middle;resizable=0;points=[];autosize=1;strokeColor=none;fillColor=none;" vertex="1" parent="4r7Y8FT_wDayemld7kVs-5">
          <mxGeometry y="50" width="240" height="30" as="geometry" />
        </mxCell>
        <mxCell id="4r7Y8FT_wDayemld7kVs-6" value="" style="line;html=1;strokeWidth=1;align=left;verticalAlign=middle;spacingTop=-1;spacingLeft=3;spacingRight=3;rotatable=0;labelPosition=right;points=[];portConstraint=eastwest;" vertex="1" parent="4r7Y8FT_wDayemld7kVs-5">
          <mxGeometry y="80" width="240" height="6" as="geometry" />
        </mxCell>
        <mxCell id="XZ_RsN6g8A-86o2VmCFa-1" value="+ addFile(T file): void,&amp;nbsp;Adds a given file &lt;br&gt;to the list of files.&lt;br&gt;+ getFiles(): void, returns the list of files&amp;nbsp;&lt;br&gt;+ errorMessage(): String,&amp;nbsp;" style="text;html=1;align=left;verticalAlign=middle;resizable=0;points=[];autosize=1;strokeColor=none;fillColor=none;" vertex="1" parent="4r7Y8FT_wDayemld7kVs-5">
          <mxGeometry y="86" width="240" height="70" as="geometry" />
        </mxCell>
        <mxCell id="4r7Y8FT_wDayemld7kVs-7" value="StudyGuideGenerator" style="swimlane;fontStyle=2;align=center;verticalAlign=top;childLayout=stackLayout;horizontal=1;startSize=26;horizontalStack=0;resizeParent=1;resizeLast=0;collapsible=1;marginBottom=0;rounded=0;shadow=0;strokeWidth=1;" vertex="1" parent="WIyWlLk6GJQsqaUBKTNV-1">
          <mxGeometry x="350" y="160" width="230" height="130" as="geometry">
            <mxRectangle x="230" y="140" width="160" height="26" as="alternateBounds" />
          </mxGeometry>
        </mxCell>
        <mxCell id="4r7Y8FT_wDayemld7kVs-44" value="- studyGuide: MarkDown&lt;br&gt;- fileWriter: Writer&lt;br&gt;- markDownReader: MarkDownReader" style="text;html=1;align=left;verticalAlign=middle;resizable=0;points=[];autosize=1;strokeColor=none;fillColor=none;" vertex="1" parent="4r7Y8FT_wDayemld7kVs-7">
          <mxGeometry y="26" width="230" height="60" as="geometry" />
        </mxCell>
        <mxCell id="4r7Y8FT_wDayemld7kVs-8" value="" style="line;html=1;strokeWidth=1;align=left;verticalAlign=middle;spacingTop=-1;spacingLeft=3;spacingRight=3;rotatable=0;labelPosition=right;points=[];portConstraint=eastwest;" vertex="1" parent="4r7Y8FT_wDayemld7kVs-7">
          <mxGeometry y="86" width="230" height="4" as="geometry" />
        </mxCell>
        <mxCell id="4r7Y8FT_wDayemld7kVs-45" value="+ generateStudyGuide(): void, Generates&amp;nbsp;&lt;br&gt;and writes a study guide&amp;nbsp;" style="text;html=1;align=left;verticalAlign=middle;resizable=0;points=[];autosize=1;strokeColor=none;fillColor=none;" vertex="1" parent="4r7Y8FT_wDayemld7kVs-7">
          <mxGeometry y="90" width="230" height="40" as="geometry" />
        </mxCell>
        <mxCell id="4r7Y8FT_wDayemld7kVs-19" value="" style="endArrow=open;endFill=1;endSize=12;html=1;rounded=0;edgeStyle=orthogonalEdgeStyle;exitX=0.5;exitY=1;exitDx=0;exitDy=0;entryX=0.5;entryY=0;entryDx=0;entryDy=0;" edge="1" parent="WIyWlLk6GJQsqaUBKTNV-1" source="4r7Y8FT_wDayemld7kVs-5" target="4r7Y8FT_wDayemld7kVs-2">
          <mxGeometry width="160" relative="1" as="geometry">
            <mxPoint x="330" y="370" as="sourcePoint" />
            <mxPoint x="490" y="370" as="targetPoint" />
          </mxGeometry>
        </mxCell>
        <mxCell id="4r7Y8FT_wDayemld7kVs-21" value="" style="endArrow=open;endFill=1;endSize=12;html=1;rounded=0;edgeStyle=orthogonalEdgeStyle;exitX=0.476;exitY=1.014;exitDx=0;exitDy=0;exitPerimeter=0;entryX=0.5;entryY=0;entryDx=0;entryDy=0;" edge="1" parent="WIyWlLk6GJQsqaUBKTNV-1" source="zkfFHV4jXpPFQw0GAbJ--5" target="4r7Y8FT_wDayemld7kVs-7">
          <mxGeometry width="160" relative="1" as="geometry">
            <mxPoint x="350" y="320" as="sourcePoint" />
            <mxPoint x="510" y="320" as="targetPoint" />
          </mxGeometry>
        </mxCell>
        <mxCell id="4r7Y8FT_wDayemld7kVs-25" value="" style="endArrow=open;endFill=1;endSize=12;html=1;rounded=0;edgeStyle=orthogonalEdgeStyle;exitX=0;exitY=0.5;exitDx=0;exitDy=0;entryX=1;entryY=0.25;entryDx=0;entryDy=0;" edge="1" parent="WIyWlLk6GJQsqaUBKTNV-1" source="4r7Y8FT_wDayemld7kVs-7" target="4r7Y8FT_wDayemld7kVs-5">
          <mxGeometry width="160" relative="1" as="geometry">
            <mxPoint x="350" y="310" as="sourcePoint" />
            <mxPoint x="510" y="310" as="targetPoint" />
          </mxGeometry>
        </mxCell>
        <mxCell id="4r7Y8FT_wDayemld7kVs-27" value="FileType" style="swimlane;fontStyle=2;align=center;verticalAlign=top;childLayout=stackLayout;horizontal=1;startSize=26;horizontalStack=0;resizeParent=1;resizeLast=0;collapsible=1;marginBottom=0;rounded=0;shadow=0;strokeWidth=1;" vertex="1" parent="WIyWlLk6GJQsqaUBKTNV-1">
          <mxGeometry x="600" y="30" width="180" height="200" as="geometry">
            <mxRectangle x="230" y="140" width="160" height="26" as="alternateBounds" />
          </mxGeometry>
        </mxCell>
        <mxCell id="4r7Y8FT_wDayemld7kVs-29" value="- name: String&lt;br&gt;- dateCrated: FileTime&lt;br&gt;- lastModified: FileTime&amp;nbsp;" style="text;html=1;align=left;verticalAlign=middle;resizable=0;points=[];autosize=1;strokeColor=none;fillColor=none;" vertex="1" parent="4r7Y8FT_wDayemld7kVs-27">
          <mxGeometry y="26" width="180" height="60" as="geometry" />
        </mxCell>
        <mxCell id="4r7Y8FT_wDayemld7kVs-28" value="" style="line;html=1;strokeWidth=1;align=left;verticalAlign=middle;spacingTop=-1;spacingLeft=3;spacingRight=3;rotatable=0;labelPosition=right;points=[];portConstraint=eastwest;" vertex="1" parent="4r7Y8FT_wDayemld7kVs-27">
          <mxGeometry y="86" width="180" height="4" as="geometry" />
        </mxCell>
        <mxCell id="4r7Y8FT_wDayemld7kVs-30" value="+ toString(): String&amp;nbsp;&lt;br&gt;+ getName(): String&lt;br&gt;+ getDateCreated(): Date&amp;nbsp;&lt;br&gt;+ getLastModified(): Date&amp;nbsp;&lt;br&gt;+ parseFile(String): void,&lt;br&gt;Adds data from a string to this &lt;br&gt;FileType object" style="text;html=1;align=left;verticalAlign=middle;resizable=0;points=[];autosize=1;strokeColor=none;fillColor=none;" vertex="1" parent="4r7Y8FT_wDayemld7kVs-27">
          <mxGeometry y="90" width="180" height="110" as="geometry" />
        </mxCell>
        <mxCell id="4r7Y8FT_wDayemld7kVs-32" value="MarkDown" style="swimlane;fontStyle=2;align=center;verticalAlign=top;childLayout=stackLayout;horizontal=1;startSize=26;horizontalStack=0;resizeParent=1;resizeLast=0;collapsible=1;marginBottom=0;rounded=0;shadow=0;strokeWidth=1;" vertex="1" parent="WIyWlLk6GJQsqaUBKTNV-1">
          <mxGeometry x="590" y="290" width="220" height="220" as="geometry">
            <mxRectangle x="230" y="140" width="160" height="26" as="alternateBounds" />
          </mxGeometry>
        </mxCell>
        <mxCell id="4r7Y8FT_wDayemld7kVs-34" value="- listOfMDUnit: ArrayList&amp;lt;&amp;gt;" style="text;html=1;align=left;verticalAlign=middle;resizable=0;points=[];autosize=1;strokeColor=none;fillColor=none;" vertex="1" parent="4r7Y8FT_wDayemld7kVs-32">
          <mxGeometry y="26" width="220" height="30" as="geometry" />
        </mxCell>
        <mxCell id="4r7Y8FT_wDayemld7kVs-33" value="" style="line;html=1;strokeWidth=1;align=left;verticalAlign=middle;spacingTop=-1;spacingLeft=3;spacingRight=3;rotatable=0;labelPosition=right;points=[];portConstraint=eastwest;" vertex="1" parent="4r7Y8FT_wDayemld7kVs-32">
          <mxGeometry y="56" width="220" height="4" as="geometry" />
        </mxCell>
        <mxCell id="4r7Y8FT_wDayemld7kVs-35" value="+ addMarkDownUnit(): void, adds a&lt;br&gt;&amp;nbsp;unit&lt;span style=&quot;&quot;&gt; &lt;/span&gt;to the listOfMDUnit&lt;br&gt;+ tokenizeLine(String): splits a line&amp;nbsp;&lt;br&gt;&lt;span style=&quot;&quot;&gt; &lt;/span&gt;into tags and parses then and &lt;br&gt;adds them to the list&lt;br&gt;+ getUnits(): ArrayList&amp;lt;&amp;gt;, returns the&amp;nbsp;&lt;br&gt;list of MDUnits&lt;br&gt;+ toString(): String&lt;br&gt;+ parseFile(String): void,&amp;nbsp;Parses a string&lt;br&gt;&amp;nbsp;into a MarkDown object" style="text;html=1;align=left;verticalAlign=middle;resizable=0;points=[];autosize=1;strokeColor=none;fillColor=none;" vertex="1" parent="4r7Y8FT_wDayemld7kVs-32">
          <mxGeometry y="60" width="220" height="160" as="geometry" />
        </mxCell>
        <mxCell id="4r7Y8FT_wDayemld7kVs-37" value="Extends" style="endArrow=block;endSize=16;endFill=0;html=1;rounded=0;edgeStyle=orthogonalEdgeStyle;entryX=0.5;entryY=0;entryDx=0;entryDy=0;exitX=0.496;exitY=0.999;exitDx=0;exitDy=0;exitPerimeter=0;" edge="1" parent="WIyWlLk6GJQsqaUBKTNV-1" source="4r7Y8FT_wDayemld7kVs-30" target="4r7Y8FT_wDayemld7kVs-32">
          <mxGeometry width="160" relative="1" as="geometry">
            <mxPoint x="350" y="250" as="sourcePoint" />
            <mxPoint x="510" y="250" as="targetPoint" />
          </mxGeometry>
        </mxCell>
        <mxCell id="4r7Y8FT_wDayemld7kVs-38" value="MarkDownUnit" style="swimlane;fontStyle=2;align=center;verticalAlign=top;childLayout=stackLayout;horizontal=1;startSize=26;horizontalStack=0;resizeParent=1;resizeLast=0;collapsible=1;marginBottom=0;rounded=0;shadow=0;strokeWidth=1;" vertex="1" parent="WIyWlLk6GJQsqaUBKTNV-1">
          <mxGeometry x="580" y="584.5" width="210" height="170" as="geometry">
            <mxRectangle x="230" y="140" width="160" height="26" as="alternateBounds" />
          </mxGeometry>
        </mxCell>
        <mxCell id="4r7Y8FT_wDayemld7kVs-39" value="- text: String&amp;nbsp;&lt;br&gt;- tag: String&amp;nbsp;" style="text;html=1;align=left;verticalAlign=middle;resizable=0;points=[];autosize=1;strokeColor=none;fillColor=none;" vertex="1" parent="4r7Y8FT_wDayemld7kVs-38">
          <mxGeometry y="26" width="210" height="40" as="geometry" />
        </mxCell>
        <mxCell id="4r7Y8FT_wDayemld7kVs-40" value="" style="line;html=1;strokeWidth=1;align=left;verticalAlign=middle;spacingTop=-1;spacingLeft=3;spacingRight=3;rotatable=0;labelPosition=right;points=[];portConstraint=eastwest;" vertex="1" parent="4r7Y8FT_wDayemld7kVs-38">
          <mxGeometry y="66" width="210" height="4" as="geometry" />
        </mxCell>
        <mxCell id="4r7Y8FT_wDayemld7kVs-41" value="+ stringToMarkDownUnit(): static&amp;nbsp;&lt;br&gt;&lt;span style=&quot;white-space: pre;&quot;&gt; &lt;/span&gt;MarDownUnit, returns a MDU&amp;nbsp;&lt;br&gt;&lt;span style=&quot;white-space: pre;&quot;&gt; &lt;/span&gt;from a string with one tag type&amp;nbsp;&lt;br&gt;+ getText(): String&amp;nbsp;&lt;br&gt;+ getTag(): String&amp;nbsp;&lt;br&gt;+ toString(): String&amp;nbsp;" style="text;html=1;align=left;verticalAlign=middle;resizable=0;points=[];autosize=1;strokeColor=none;fillColor=none;" vertex="1" parent="4r7Y8FT_wDayemld7kVs-38">
          <mxGeometry y="70" width="210" height="100" as="geometry" />
        </mxCell>
        <mxCell id="4r7Y8FT_wDayemld7kVs-43" value="" style="endArrow=open;endFill=1;endSize=12;html=1;rounded=0;edgeStyle=orthogonalEdgeStyle;exitX=0.501;exitY=0.999;exitDx=0;exitDy=0;exitPerimeter=0;entryX=0.5;entryY=0;entryDx=0;entryDy=0;" edge="1" parent="WIyWlLk6GJQsqaUBKTNV-1" source="4r7Y8FT_wDayemld7kVs-35" target="4r7Y8FT_wDayemld7kVs-38">
          <mxGeometry width="160" relative="1" as="geometry">
            <mxPoint x="350" y="430" as="sourcePoint" />
            <mxPoint x="510" y="430" as="targetPoint" />
          </mxGeometry>
        </mxCell>
        <mxCell id="4r7Y8FT_wDayemld7kVs-51" value="&lt;interface&gt;&#xa;SortByX" style="swimlane;fontStyle=2;align=center;verticalAlign=top;childLayout=stackLayout;horizontal=1;startSize=40;horizontalStack=0;resizeParent=1;resizeLast=0;collapsible=1;marginBottom=0;rounded=0;shadow=0;strokeWidth=1;" vertex="1" parent="WIyWlLk6GJQsqaUBKTNV-1">
          <mxGeometry x="316" y="510" width="195" height="94" as="geometry">
            <mxRectangle x="230" y="140" width="160" height="26" as="alternateBounds" />
          </mxGeometry>
        </mxCell>
        <mxCell id="4r7Y8FT_wDayemld7kVs-53" value="" style="line;html=1;strokeWidth=1;align=left;verticalAlign=middle;spacingTop=-1;spacingLeft=3;spacingRight=3;rotatable=0;labelPosition=right;points=[];portConstraint=eastwest;" vertex="1" parent="4r7Y8FT_wDayemld7kVs-51">
          <mxGeometry y="40" width="195" height="24" as="geometry" />
        </mxCell>
        <mxCell id="4r7Y8FT_wDayemld7kVs-54" value="+ compare(MarkDown, MarDown): int" style="text;html=1;align=left;verticalAlign=middle;resizable=0;points=[];autosize=1;strokeColor=none;fillColor=none;" vertex="1" parent="4r7Y8FT_wDayemld7kVs-51">
          <mxGeometry y="64" width="195" height="30" as="geometry" />
        </mxCell>
        <mxCell id="4r7Y8FT_wDayemld7kVs-55" value="&lt;interface&gt;&#xa;Comparator&lt;T&gt;" style="swimlane;fontStyle=2;align=center;verticalAlign=top;childLayout=stackLayout;horizontal=1;startSize=40;horizontalStack=0;resizeParent=1;resizeLast=0;collapsible=1;marginBottom=0;rounded=0;shadow=0;strokeWidth=1;" vertex="1" parent="WIyWlLk6GJQsqaUBKTNV-1">
          <mxGeometry x="316" y="360" width="195" height="94" as="geometry">
            <mxRectangle x="230" y="140" width="160" height="26" as="alternateBounds" />
          </mxGeometry>
        </mxCell>
        <mxCell id="4r7Y8FT_wDayemld7kVs-56" value="" style="line;html=1;strokeWidth=1;align=left;verticalAlign=middle;spacingTop=-1;spacingLeft=3;spacingRight=3;rotatable=0;labelPosition=right;points=[];portConstraint=eastwest;" vertex="1" parent="4r7Y8FT_wDayemld7kVs-55">
          <mxGeometry y="40" width="195" height="24" as="geometry" />
        </mxCell>
        <mxCell id="4r7Y8FT_wDayemld7kVs-57" value="+ compare(T, T): int" style="text;html=1;align=left;verticalAlign=middle;resizable=0;points=[];autosize=1;strokeColor=none;fillColor=none;" vertex="1" parent="4r7Y8FT_wDayemld7kVs-55">
          <mxGeometry y="64" width="195" height="30" as="geometry" />
        </mxCell>
        <mxCell id="4r7Y8FT_wDayemld7kVs-59" value="Extends" style="endArrow=block;endSize=16;endFill=0;html=1;rounded=0;edgeStyle=orthogonalEdgeStyle;entryX=0.5;entryY=0;entryDx=0;entryDy=0;exitX=0.502;exitY=1.015;exitDx=0;exitDy=0;exitPerimeter=0;" edge="1" parent="WIyWlLk6GJQsqaUBKTNV-1" source="4r7Y8FT_wDayemld7kVs-57" target="4r7Y8FT_wDayemld7kVs-51">
          <mxGeometry width="160" relative="1" as="geometry">
            <mxPoint x="350" y="490" as="sourcePoint" />
            <mxPoint x="510" y="490" as="targetPoint" />
            <mxPoint as="offset" />
          </mxGeometry>
        </mxCell>
        <mxCell id="4r7Y8FT_wDayemld7kVs-60" value="" style="endArrow=none;html=1;rounded=0;entryX=0.495;entryY=1.021;entryDx=0;entryDy=0;entryPerimeter=0;" edge="1" parent="WIyWlLk6GJQsqaUBKTNV-1" target="4r7Y8FT_wDayemld7kVs-54">
          <mxGeometry width="50" height="50" relative="1" as="geometry">
            <mxPoint x="270" y="670" as="sourcePoint" />
            <mxPoint x="450" y="650" as="targetPoint" />
          </mxGeometry>
        </mxCell>
        <mxCell id="4r7Y8FT_wDayemld7kVs-61" value="SortByCreated" style="swimlane;fontStyle=2;align=center;verticalAlign=top;childLayout=stackLayout;horizontal=1;startSize=30;horizontalStack=0;resizeParent=1;resizeLast=0;collapsible=1;marginBottom=0;rounded=0;shadow=0;strokeWidth=1;" vertex="1" parent="WIyWlLk6GJQsqaUBKTNV-1">
          <mxGeometry x="15" y="760" width="205" height="94" as="geometry">
            <mxRectangle x="230" y="140" width="160" height="26" as="alternateBounds" />
          </mxGeometry>
        </mxCell>
        <mxCell id="4r7Y8FT_wDayemld7kVs-62" value="" style="line;html=1;strokeWidth=1;align=left;verticalAlign=middle;spacingTop=-1;spacingLeft=3;spacingRight=3;rotatable=0;labelPosition=right;points=[];portConstraint=eastwest;" vertex="1" parent="4r7Y8FT_wDayemld7kVs-61">
          <mxGeometry y="30" width="205" height="24" as="geometry" />
        </mxCell>
        <mxCell id="4r7Y8FT_wDayemld7kVs-63" value="+ compare(MarkDown, MarDown): int,&amp;nbsp;&lt;br&gt;&lt;span style=&quot;white-space: pre;&quot;&gt; &lt;/span&gt;files created first come first" style="text;html=1;align=left;verticalAlign=middle;resizable=0;points=[];autosize=1;strokeColor=none;fillColor=none;" vertex="1" parent="4r7Y8FT_wDayemld7kVs-61">
          <mxGeometry y="54" width="205" height="40" as="geometry" />
        </mxCell>
        <mxCell id="4r7Y8FT_wDayemld7kVs-64" value="SortByModified" style="swimlane;fontStyle=2;align=center;verticalAlign=top;childLayout=stackLayout;horizontal=1;startSize=30;horizontalStack=0;resizeParent=1;resizeLast=0;collapsible=1;marginBottom=0;rounded=0;shadow=0;strokeWidth=1;" vertex="1" parent="WIyWlLk6GJQsqaUBKTNV-1">
          <mxGeometry x="285" y="770" width="210" height="94" as="geometry">
            <mxRectangle x="230" y="140" width="160" height="26" as="alternateBounds" />
          </mxGeometry>
        </mxCell>
        <mxCell id="4r7Y8FT_wDayemld7kVs-65" value="" style="line;html=1;strokeWidth=1;align=left;verticalAlign=middle;spacingTop=-1;spacingLeft=3;spacingRight=3;rotatable=0;labelPosition=right;points=[];portConstraint=eastwest;" vertex="1" parent="4r7Y8FT_wDayemld7kVs-64">
          <mxGeometry y="30" width="210" height="24" as="geometry" />
        </mxCell>
        <mxCell id="4r7Y8FT_wDayemld7kVs-66" value="+ compare(MarkDown, MarDown): int,&amp;nbsp;&lt;br&gt;&lt;span style=&quot;white-space: pre;&quot;&gt; &lt;/span&gt;files modified last come first" style="text;html=1;align=left;verticalAlign=middle;resizable=0;points=[];autosize=1;strokeColor=none;fillColor=none;" vertex="1" parent="4r7Y8FT_wDayemld7kVs-64">
          <mxGeometry y="54" width="210" height="40" as="geometry" />
        </mxCell>
        <mxCell id="4r7Y8FT_wDayemld7kVs-67" value="SortByName" style="swimlane;fontStyle=2;align=center;verticalAlign=top;childLayout=stackLayout;horizontal=1;startSize=30;horizontalStack=0;resizeParent=1;resizeLast=0;collapsible=1;marginBottom=0;rounded=0;shadow=0;strokeWidth=1;" vertex="1" parent="WIyWlLk6GJQsqaUBKTNV-1">
          <mxGeometry x="160" y="920" width="230" height="94" as="geometry">
            <mxRectangle x="230" y="140" width="160" height="26" as="alternateBounds" />
          </mxGeometry>
        </mxCell>
        <mxCell id="4r7Y8FT_wDayemld7kVs-68" value="" style="line;html=1;strokeWidth=1;align=left;verticalAlign=middle;spacingTop=-1;spacingLeft=3;spacingRight=3;rotatable=0;labelPosition=right;points=[];portConstraint=eastwest;" vertex="1" parent="4r7Y8FT_wDayemld7kVs-67">
          <mxGeometry y="30" width="230" height="24" as="geometry" />
        </mxCell>
        <mxCell id="4r7Y8FT_wDayemld7kVs-69" value="+ compare(MarkDown, MarDown): int,&amp;nbsp;&lt;br&gt;&lt;span style=&quot;white-space: pre;&quot;&gt; &lt;/span&gt;files are sorted by name" style="text;html=1;align=left;verticalAlign=middle;resizable=0;points=[];autosize=1;strokeColor=none;fillColor=none;" vertex="1" parent="4r7Y8FT_wDayemld7kVs-67">
          <mxGeometry y="54" width="230" height="40" as="geometry" />
        </mxCell>
        <mxCell id="4r7Y8FT_wDayemld7kVs-70" value="Extends" style="endArrow=block;endSize=16;endFill=0;html=1;rounded=0;edgeStyle=orthogonalEdgeStyle;entryX=0.5;entryY=0;entryDx=0;entryDy=0;" edge="1" parent="WIyWlLk6GJQsqaUBKTNV-1" target="4r7Y8FT_wDayemld7kVs-64">
          <mxGeometry width="160" relative="1" as="geometry">
            <mxPoint x="270" y="670" as="sourcePoint" />
            <mxPoint x="510" y="700" as="targetPoint" />
          </mxGeometry>
        </mxCell>
        <mxCell id="4r7Y8FT_wDayemld7kVs-71" value="Extends" style="endArrow=block;endSize=16;endFill=0;html=1;rounded=0;edgeStyle=orthogonalEdgeStyle;entryX=0.5;entryY=0;entryDx=0;entryDy=0;" edge="1" parent="WIyWlLk6GJQsqaUBKTNV-1" target="4r7Y8FT_wDayemld7kVs-67">
          <mxGeometry width="160" relative="1" as="geometry">
            <mxPoint x="120" y="672" as="sourcePoint" />
            <mxPoint x="400" y="670" as="targetPoint" />
            <Array as="points">
              <mxPoint x="120" y="670" />
              <mxPoint x="270" y="670" />
              <mxPoint x="270" y="900" />
              <mxPoint x="275" y="900" />
            </Array>
          </mxGeometry>
        </mxCell>
        <mxCell id="4r7Y8FT_wDayemld7kVs-72" value="Extends" style="endArrow=block;endSize=16;endFill=0;html=1;rounded=0;edgeStyle=orthogonalEdgeStyle;entryX=0.5;entryY=0;entryDx=0;entryDy=0;" edge="1" parent="WIyWlLk6GJQsqaUBKTNV-1" target="4r7Y8FT_wDayemld7kVs-61">
          <mxGeometry width="160" relative="1" as="geometry">
            <mxPoint x="118" y="671" as="sourcePoint" />
            <mxPoint x="390" y="670" as="targetPoint" />
          </mxGeometry>
        </mxCell>
        <mxCell id="XZ_RsN6g8A-86o2VmCFa-3" value="Writer" style="swimlane;fontStyle=2;align=center;verticalAlign=top;childLayout=stackLayout;horizontal=1;startSize=40;horizontalStack=0;resizeParent=1;resizeLast=0;collapsible=1;marginBottom=0;rounded=0;shadow=0;strokeWidth=1;" vertex="1" parent="WIyWlLk6GJQsqaUBKTNV-1">
          <mxGeometry x="10" y="440" width="230" height="154" as="geometry">
            <mxRectangle x="230" y="140" width="160" height="26" as="alternateBounds" />
          </mxGeometry>
        </mxCell>
        <mxCell id="XZ_RsN6g8A-86o2VmCFa-4" value="- outputPath: Path" style="text;html=1;align=left;verticalAlign=middle;resizable=0;points=[];autosize=1;strokeColor=none;fillColor=none;" vertex="1" parent="XZ_RsN6g8A-86o2VmCFa-3">
          <mxGeometry y="40" width="230" height="30" as="geometry" />
        </mxCell>
        <mxCell id="XZ_RsN6g8A-86o2VmCFa-5" value="" style="line;html=1;strokeWidth=1;align=left;verticalAlign=middle;spacingTop=-1;spacingLeft=3;spacingRight=3;rotatable=0;labelPosition=right;points=[];portConstraint=eastwest;" vertex="1" parent="XZ_RsN6g8A-86o2VmCFa-3">
          <mxGeometry y="70" width="230" height="24" as="geometry" />
        </mxCell>
        <mxCell id="XZ_RsN6g8A-86o2VmCFa-6" value="+ writeFile(FileType file): void, writes a&lt;br&gt;file to the output path" style="text;html=1;align=left;verticalAlign=middle;resizable=0;points=[];autosize=1;strokeColor=none;fillColor=none;" vertex="1" parent="XZ_RsN6g8A-86o2VmCFa-3">
          <mxGeometry y="94" width="230" height="40" as="geometry" />
        </mxCell>
        <mxCell id="XZ_RsN6g8A-86o2VmCFa-7" value="Enum SortOrder" style="swimlane;fontStyle=2;align=center;verticalAlign=top;childLayout=stackLayout;horizontal=1;startSize=40;horizontalStack=0;resizeParent=1;resizeLast=0;collapsible=1;marginBottom=0;rounded=0;shadow=0;strokeWidth=1;" vertex="1" parent="WIyWlLk6GJQsqaUBKTNV-1">
          <mxGeometry x="550" y="790" width="250" height="214" as="geometry">
            <mxRectangle x="230" y="140" width="160" height="26" as="alternateBounds" />
          </mxGeometry>
        </mxCell>
        <mxCell id="XZ_RsN6g8A-86o2VmCFa-8" value="- NAME&lt;br&gt;- CREATED&amp;nbsp;&lt;br&gt;- LASTMODIFIED" style="text;html=1;align=left;verticalAlign=middle;resizable=0;points=[];autosize=1;strokeColor=none;fillColor=none;" vertex="1" parent="XZ_RsN6g8A-86o2VmCFa-7">
          <mxGeometry y="40" width="250" height="60" as="geometry" />
        </mxCell>
        <mxCell id="XZ_RsN6g8A-86o2VmCFa-9" value="" style="line;html=1;strokeWidth=1;align=left;verticalAlign=middle;spacingTop=-1;spacingLeft=3;spacingRight=3;rotatable=0;labelPosition=right;points=[];portConstraint=eastwest;" vertex="1" parent="XZ_RsN6g8A-86o2VmCFa-7">
          <mxGeometry y="100" width="250" height="24" as="geometry" />
        </mxCell>
        <mxCell id="XZ_RsN6g8A-86o2VmCFa-10" value="+ getSortBy(): SortByX,&amp;nbsp;the SortByX &lt;br&gt;object that corresponds to this SortOrder.&lt;br&gt;+ getSortOrder(String): SortOrder,&amp;nbsp;Returns&lt;br&gt;&amp;nbsp;the SortOrder that corresponds to the &lt;br&gt;given string." style="text;html=1;align=left;verticalAlign=middle;resizable=0;points=[];autosize=1;strokeColor=none;fillColor=none;" vertex="1" parent="XZ_RsN6g8A-86o2VmCFa-7">
          <mxGeometry y="124" width="250" height="90" as="geometry" />
        </mxCell>
      </root>
    </mxGraphModel>
  </diagram>
</mxfile>
